<?xml version="1.0" encoding="utf-8"?>
<!-- Svg Vector Icons : http://www.onlinewebfonts.com/icon -->
<!DOCTYPE svg PUBLIC "-//W3C//DTD SVG 1.1//EN" "http://www.w3.org/Graphics/SVG/1.1/DTD/svg11.dtd">
<svg version="1.1" xmlns="http://www.w3.org/2000/svg" xmlns:xlink="http://www.w3.org/1999/xlink" x="0px" y="0px" viewBox="0 0 1000 1000" enable-background="new 0 0 1000 1000" xml:space="preserve">
<metadata> Svg Vector Icons : http://www.onlinewebfonts.com/icon </metadata>
<g><g transform="translate(0.000000,511.000000) scale(0.100000,-0.100000)"><path d="M4716.3,2995.8c-328.9-61.3-614.8-213.2-864.3-462.8c-204.2-204.2-324.4-397-412.9-666.9c-49.9-152-59-213.2-56.7-480.9c0-270,6.8-326.7,59-487.7c104.4-319.9,324.4-623.8,585.3-816.7l131.6-97.5l-106.6-38.6c-176.9-68.1-415.1-192.8-569.4-299.4c-79.4-54.4-145.2-97.5-147.5-93c-2.3,4.5-27.2,79.4-54.4,165.6c-72.6,235.9-197.4,431-401.5,635.2c-149.7,149.7-390.2,322.1-496.8,358.4c-13.6,4.5,9.1,49.9,49.9,99.8c40.8,52.2,102.1,154.3,136.1,226.9c52.2,113.4,61.3,161.1,61.3,347.1c0,195.1-6.8,229.1-72.6,367.5c-99.8,211-226.9,342.5-433.3,444.6c-163.3,79.4-183.8,83.9-387.9,83.9c-197.4,0-231.4-6.8-369.8-72.6c-211-99.8-342.5-226.9-444.6-433.3c-79.4-163.3-83.9-183.8-83.9-387.9c0-188.3,9.1-235.9,61.3-349.4c34-72.6,95.3-174.7,136.1-226.9c40.8-49.9,63.5-95.3,49.9-99.8c-86.2-29.5-335.7-199.6-460.5-313C365.3,157.9,199.7-143.8,131.6-493.2c-47.6-254.1-43.1-358.4,25-424.2c118-120.2,306.3-34,306.3,142.9c0,163.3,47.6,356.2,136.1,537.6c190.6,397,587.5,669.2,1029.9,707.8c664.7,54.4,1270.4-433.3,1363.4-1098l15.9-115.7l-161.1-211c-344.8-451.4-528.6-943.7-562.6-1499.5c-13.6-213.2-11.3-220,45.4-276.7c77.1-77.1,179.2-79.4,254.1-2.3c45.4,43.1,56.7,77.1,56.7,167.9c0,310.8,97.5,698.7,254.1,1011.7c120.2,240.5,233.7,394.7,431,598.9c1238.6,1252.2,3339.3,760,3913.2-916.5c61.3-183.7,120.2-512.7,120.2-687.4c0-97.5,11.3-131.6,56.7-174.7c74.9-77.1,176.9-74.9,254.1,2.3c56.7,56.7,59,63.5,45.4,276.7c-34,555.8-220.1,1048.1-567.1,1506.3l-156.5,204.2l15.9,118c56.7,415.1,324.4,784.9,701,966.4c508.1,245,1075.3,145.2,1467.7-254.1c213.2-215.5,360.7-569.4,360.7-862.1c0-179.2,188.3-263.1,310.8-140.6c56.7,56.7,59,65.8,45.4,242.7c-15.9,226.9-99.8,499.1-213.2,696.4c-111.2,188.3-408.3,485.5-594.4,594.4c-81.7,47.6-158.8,88.5-170.1,93c-13.6,4.5,9.1,49.9,49.9,99.8c40.8,52.2,102.1,154.3,136.1,226.9c52.2,113.4,61.3,161.1,61.3,349.4c0,204.2-4.5,224.6-83.9,387.9c-102.1,206.4-233.7,333.5-444.6,433.3c-138.4,65.8-172.4,72.6-369.8,72.6c-204.2,0-224.6-4.5-387.9-83.9c-206.4-102.1-333.5-233.7-433.3-444.6c-65.8-138.4-72.6-172.4-72.6-367.5c0-186,9.1-233.7,61.3-347.1c34-72.6,95.3-174.7,136.1-226.9c40.8-49.9,63.5-95.3,49.9-99.8c-106.6-36.3-347.1-208.7-496.8-358.4C6916.8,148.8,6792-48.5,6719.4-282.2c-27.2-86.2-52.2-161.1-54.4-165.6c0-2.3-72.6,43.1-158.8,99.8C6336-234.5,6118.2-118.9,5948.1-55.3l-106.6,38.6L5973,80.8c260.9,192.8,480.9,496.8,585.3,816.7c52.2,161.1,59,217.8,59,487.7s-6.8,326.7-59,487.7c-86.2,260.9-206.4,451.4-412.9,657.9c-315.3,317.6-644.3,460.5-1077.5,476.4C4936.4,3011.7,4779.8,3007.2,4716.3,2995.8z M5240.3,2630.6c222.3-38.6,483.2-179.2,653.3-351.6c614.8-612.5,442.4-1651.5-335.7-2028.1c-807.6-390.2-1744.5,140.7-1821.6,1029.9c-43.1,512.7,245,1016.3,705.5,1238.6C4709.5,2648.8,4954.5,2682.8,5240.3,2630.6z M1901.1,1902.4c195.1-59,376.6-308.5,376.6-517.2c0-208.7-181.5-458.2-376.6-517.2c-213.2-63.5-383.4-18.2-542.2,142.9c-231.4,229.1-231.4,519.5,0,748.6C1517.7,1920.6,1687.8,1963.7,1901.1,1902.4z M8434.4,1902.4c195.1-59,376.6-308.5,376.6-517.2c0-281.3-263.1-544.4-544.4-544.4c-142.9,0-258.6,52.2-374.3,170.1c-231.4,229.1-231.4,519.5,0,748.6C8051,1920.6,8221.2,1963.7,8434.4,1902.4z"/></g></g>
</svg>